<?xml version="1.0" standalone="no"?>
<!DOCTYPE svg PUBLIC "-//W3C//DTD SVG 20010904//EN"
 "http://www.w3.org/TR/2001/REC-SVG-20010904/DTD/svg10.dtd">
<svg version="1.0" xmlns="http://www.w3.org/2000/svg"
 width="1024.000000pt" height="1024.000000pt" viewBox="0 0 1024.000000 1024.000000"
 preserveAspectRatio="xMidYMid meet">

<g transform="translate(0.000000,1024.000000) scale(0.100000,-0.100000)"
fill="#000000" stroke="none">
<path d="M2210 6594 c-36 -14 -324 -122 -640 -240 -442 -164 -580 -220 -597
-240 l-23 -25 0 -825 0 -825 22 -22 c21 -21 271 -124 878 -362 107 -42 258
-101 334 -132 158 -62 162 -62 286 -9 86 36 101 56 90 118 -11 56 -29 68 -96
61 l-54 -6 2 712 3 712 105 40 c58 22 218 82 355 133 200 75 498 189 608 231
16 7 17 -12 17 -314 0 -313 0 -321 21 -342 18 -18 30 -21 75 -17 90 8 84 -24
84 443 0 379 -1 414 -17 433 -12 14 -183 83 -483 195 -687 258 -826 307 -868
307 -20 -1 -66 -12 -102 -26z m223 -200 c67 -25 129 -48 137 -50 22 -8 10 -13
-242 -110 -269 -103 -319 -122 -564 -218 l-191 -76 -119 49 c-65 27 -128 51
-138 55 -24 8 -19 13 40 35 435 163 888 334 915 345 19 9 35 15 37 16 1 0 58
-21 125 -46z m598 -218 c245 -90 293 -109 301 -115 4 -3 -134 -60 -305 -125
-172 -65 -399 -152 -506 -193 l-195 -74 -110 42 c-61 24 -168 66 -239 94
l-127 52 67 26 c173 65 671 260 783 305 69 28 132 51 141 52 9 0 94 -29 190
-64z m-1756 -304 c72 -28 147 -58 168 -66 l37 -16 0 -149 c0 -83 4 -160 9
-173 5 -14 24 -28 47 -37 22 -7 90 -33 152 -58 108 -42 115 -43 138 -28 24 15
24 18 24 165 0 83 4 150 8 150 4 0 89 -33 188 -73 l179 -74 3 -708 c2 -564 0
-706 -10 -702 -593 233 -754 297 -905 353 -170 65 -182 71 -187 98 -3 16 -6
332 -6 703 0 536 3 674 13 670 6 -2 71 -27 142 -55z"/>
<path d="M1340 5192 c-8 -3 -18 -10 -22 -16 -4 -6 -8 -137 -8 -292 0 -294 2
-305 45 -318 44 -12 45 -5 46 295 0 156 0 291 -1 300 0 19 -38 38 -60 31z"/>
<path d="M1492 5098 c-13 -13 -18 -554 -4 -574 12 -18 49 -34 65 -28 24 9 27
37 27 312 0 249 -1 263 -20 282 -23 23 -50 26 -68 8z"/>
<path d="M1662 5028 c-9 -9 -12 -85 -12 -279 0 -147 3 -275 6 -284 4 -9 18
-21 32 -26 51 -19 52 -11 52 297 0 270 -1 284 -19 294 -26 13 -44 13 -59 -2z"/>
<path d="M1832 4968 c-9 -9 -12 -87 -12 -288 0 -260 1 -278 19 -294 11 -10 30
-16 43 -14 l23 3 3 290 c2 264 1 291 -15 303 -21 15 -46 15 -61 0z"/>
<path d="M1997 4903 c-4 -3 -7 -132 -7 -285 0 -265 1 -279 20 -298 23 -23 33
-24 61 -10 18 10 19 24 19 290 0 240 -2 281 -16 294 -15 16 -65 22 -77 9z"/>
<path d="M4363 6172 c-50 -18 -115 -60 -141 -92 -78 -95 -77 -241 3 -323 49
-51 113 -81 247 -117 129 -36 170 -58 189 -101 10 -26 10 -39 -2 -73 -44 -126
-293 -111 -328 20 l-7 29 -94 3 -93 3 7 -43 c24 -157 173 -254 378 -246 74 2
104 9 149 29 111 52 169 139 169 255 0 150 -67 213 -291 274 -61 17 -121 35
-133 42 -60 31 -82 73 -66 124 15 45 58 74 120 81 87 10 165 -32 187 -102 l10
-30 84 0 84 0 -3 35 c-9 92 -77 181 -171 223 -66 30 -226 35 -298 9z"/>
<path d="M7340 6095 l0 -75 140 0 140 0 0 -385 0 -385 85 0 85 0 0 385 0 384
34 7 c19 3 80 4 135 1 l101 -4 0 73 0 74 -360 0 -360 0 0 -75z"/>
<path d="M5017 6103 c-4 -3 -7 -44 -7 -90 l0 -83 -50 0 -50 0 0 -70 0 -70 50
0 50 0 0 -191 c0 -217 8 -264 55 -312 48 -49 148 -70 244 -51 l31 7 0 71 0 71
-56 -3 c-64 -4 -90 12 -99 62 -3 17 -7 102 -10 189 l-4 157 84 0 85 0 0 70 0
70 -80 0 -80 0 0 90 0 90 -78 0 c-43 0 -82 -3 -85 -7z"/>
<path d="M5650 5931 c-172 -56 -269 -236 -230 -426 24 -118 84 -195 188 -243
187 -85 411 11 472 203 8 22 13 78 13 125 -1 150 -55 246 -175 310 -56 31 -73
34 -153 37 -49 1 -101 -1 -115 -6z m143 -140 c81 -19 126 -94 127 -206 0 -129
-61 -205 -165 -205 -102 0 -165 77 -165 200 0 115 26 165 105 201 46 21 47 21
98 10z"/>
<path d="M6472 5914 c-37 -18 -58 -37 -72 -63 l-19 -36 -1 58 0 57 -85 0 -85
0 0 -340 0 -340 84 0 85 0 3 203 c3 178 5 207 23 242 26 51 71 76 149 82 l63
6 6 71 c3 39 3 74 0 79 -10 17 -101 6 -151 -19z"/>
<path d="M6892 5926 c-111 -36 -189 -135 -213 -270 -15 -90 1 -201 40 -271 88
-157 322 -204 483 -98 37 25 108 124 108 150 0 10 -22 13 -84 13 -77 0 -86 -2
-103 -24 -81 -103 -252 -51 -270 82 l-6 42 238 0 238 0 -6 79 c-9 135 -63 227
-162 279 -61 31 -193 40 -263 18z m179 -141 c32 -17 69 -69 69 -97 0 -15 -16
-17 -141 -20 -78 -2 -142 -1 -144 2 -2 3 6 25 19 49 36 73 125 103 197 66z"/>
<path d="M8221 5919 c-71 -28 -143 -103 -172 -178 -32 -80 -32 -232 0 -313 45
-115 154 -188 293 -196 95 -6 161 16 225 72 38 33 101 131 91 141 -2 2 -40 5
-86 6 -78 2 -83 1 -103 -25 -81 -103 -248 -51 -266 82 l-6 42 238 0 238 0 -7
72 c-14 140 -73 238 -173 288 -69 35 -196 39 -272 9z m199 -134 c30 -15 70
-72 70 -98 0 -13 -22 -16 -142 -19 -79 -2 -145 -2 -147 0 -13 7 43 95 71 112
39 24 107 26 148 5z"/>
<path d="M8951 5919 c-130 -52 -212 -204 -198 -369 12 -139 74 -236 185 -288
49 -23 70 -27 152 -27 80 0 102 4 138 23 88 47 162 139 162 200 0 20 -5 22
-54 22 -29 0 -67 3 -84 6 -28 6 -32 3 -45 -28 -23 -54 -60 -78 -123 -78 -48 0
-57 4 -92 38 -46 43 -62 90 -62 177 0 73 24 130 71 169 30 25 39 28 93 24 53
-4 63 -8 87 -38 16 -18 29 -42 31 -54 2 -13 10 -21 21 -20 9 0 49 1 88 2 l71
2 -7 37 c-15 82 -70 151 -155 194 -66 33 -204 37 -279 8z"/>
<path d="M3048 5303 c-8 -10 -18 -47 -22 -83 -3 -35 -9 -67 -14 -71 -4 -3 -40
-19 -79 -34 l-73 -28 -40 27 c-64 42 -88 36 -159 -39 -86 -92 -96 -110 -83
-140 6 -13 28 -42 48 -65 33 -36 36 -43 25 -63 -6 -12 -18 -42 -25 -67 -12
-43 -15 -45 -52 -48 -92 -6 -104 -22 -104 -135 1 -84 13 -146 32 -158 7 -5 37
-9 66 -9 l52 0 37 -74 36 -73 -32 -47 c-23 -33 -30 -53 -25 -68 3 -11 37 -52
75 -89 82 -83 115 -90 173 -38 l36 31 53 -25 54 -25 5 -57 c7 -80 16 -85 155
-85 139 0 153 9 153 94 l0 53 51 21 51 22 36 -30 c50 -39 80 -45 115 -22 47
32 147 133 147 150 0 8 -14 36 -30 62 l-31 48 42 76 41 76 64 -2 c45 -1 69 3
79 13 18 17 30 215 16 253 -11 28 -40 40 -97 37 -49 -1 -53 4 -83 87 l-22 62
31 26 c38 32 63 79 55 103 -3 10 -43 55 -89 100 -93 90 -101 92 -174 49 -38
-23 -63 -21 -145 16 l-57 25 0 51 c0 51 -12 88 -34 102 -6 4 -63 8 -127 8 -98
0 -118 -3 -131 -17z m268 -457 c62 -29 124 -90 156 -154 33 -68 33 -197 -1
-266 -29 -58 -74 -105 -138 -143 -44 -25 -57 -28 -143 -28 -86 0 -100 3 -148
29 -105 59 -167 163 -167 281 1 85 24 143 86 210 95 102 228 129 355 71z"/>
<path d="M4355 5008 c-124 -44 -206 -168 -189 -285 19 -131 95 -192 309 -248
54 -15 111 -33 126 -41 66 -34 88 -107 47 -159 -28 -36 -76 -55 -138 -55 -90
0 -164 45 -176 107 l-6 34 -92 -3 -91 -3 2 -37 c5 -79 86 -178 181 -221 64
-29 226 -36 305 -13 118 34 197 132 205 253 5 73 -10 123 -50 169 -52 59 -102
82 -286 130 -104 27 -162 74 -162 130 0 30 39 81 73 95 42 18 136 15 174 -4
33 -17 59 -51 68 -90 6 -24 9 -24 91 -23 80 1 84 2 84 23 0 49 -41 131 -86
173 -69 64 -122 83 -234 87 -77 2 -106 -2 -155 -19z"/>
<path d="M5660 4555 l0 -475 85 0 85 0 0 475 0 475 -85 0 -85 0 0 -475z"/>
<path d="M5145 4769 c-68 -17 -131 -65 -159 -122 -42 -84 -40 -87 59 -87 70 0
85 3 85 15 0 23 46 62 81 69 43 8 106 -12 130 -43 13 -17 19 -37 17 -60 l-3
-36 -90 -8 c-165 -14 -248 -50 -293 -125 -53 -91 -29 -206 56 -266 34 -24 54
-30 116 -34 87 -5 148 12 186 53 31 33 38 32 46 -10 l6 -35 75 0 75 0 -4 253
c-3 239 -4 255 -26 304 -29 62 -52 85 -116 114 -56 24 -179 34 -241 18z m218
-430 c-2 -86 -54 -133 -144 -134 -42 0 -62 5 -78 19 -27 24 -28 85 -3 116 23
28 101 50 172 47 l55 -2 -2 -46z"/>
<path d="M6174 4762 c-70 -25 -97 -44 -144 -103 -50 -63 -73 -141 -73 -240 1
-148 60 -259 168 -314 49 -25 72 -31 148 -34 67 -2 100 1 135 15 59 22 127 85
158 145 l24 47 -83 4 -82 3 -36 -37 c-36 -38 -52 -43 -124 -38 -66 5 -120 59
-132 135 l-6 35 237 0 236 0 0 43 c0 253 -205 415 -426 339z m174 -142 c35
-21 72 -74 72 -102 0 -16 -13 -18 -140 -18 -120 0 -140 2 -140 15 0 36 52 104
90 118 33 12 87 6 118 -13z"/>
</g>
</svg>
